<svg xmlns="http://www.w3.org/2000/svg" viewBox="0 0 488 400"><g fill="none" stroke-width="2"><path stroke="#fafbfe" d="M478.66 400c3.51-.4 7.64.39 8.57-4.01.83-3.91 1.15-12.11-4.17-13.06-3.66-.66-7.84-.92-12.1-.13-9.09 1.68-19.61-1.07-30.55-.52-3.54.18-7.08-.11-10.69.18-11.31.92-23.55.63-34.89.53q-12.11-.11-24.18.82c-2.71.21-7.34 1.48-10.58.86q-3.74-.71-5.84-.65-.39.01-.66.29l-.26.26q-.38.38-.9.53c-5.23 1.48-5.13 7.32-4.44 11.97a.71.7 89.9 0 0 .58.59c3.39.6 6.45-.31 9.68.17 4.06.6 7.83.03 11.74.63q5.4.84 7.12.89c11.84.33 23.61.4 35.25-.09q6.88-.29 14.18.07 10.71.54 21.43.17c11.21-.39 20.24-.02 30.49.5M396.66 116.21c-8.3-12.5-21.31-17.73-36.09-16.12-7.93.86-18.01 4.7-26.51 5.48-6.93.63-14.2.13-20.59 1.29-10.08 1.83-18.02 5.51-27.57 10.86q-4.86 2.73-7.53 3.59c-6.41 2.06-15.39.87-21.89.02-9.37-1.22-20.18.82-28.98 3.35-6 1.73-13 5.16-19.49 7.7-8.33 3.26-19.6-3.48-27.63-5.52-20.01-5.07-42.81-1.98-62.54 3.05-19.61 5-31.13 21.03-31.31 41q0 .24-.23.31-.25.07-.25.28-.03 5.17-.07 10.34 0 .08-.07.11l-.24.08q-.14.04-.13.19c.39 8.64-.77 18.13-.78 25.69-.01 14.26-1.12 26.79-.21 39.66q.05.79 1.34 2.21a1.13 1.12-61 0 1 .26.93l-.74 3.96q-.11.57.43.79 1.72.68 3.51-.03a.94.93 65.4 0 1 1.17.44q.57 1.08 1.68 1.6a1.05 1.03 6.8 0 1 .57.71c.89 4.21 2.74 5.59 6.78 7.37q4.68 2.06 6.03 7.87.56 2.41 3.15 2.8.48.07.81.42c3.23 3.4 7.62 4.32 12.02 8.05q.39.33.89.24 2-.36 3.22 1.24.27.34.7.32 20.19-1.26 35.39-5.22c14.59-3.8 23.24-8.9 34.76-15.24 3.73-2.05 9.31-1.91 13.91-.72 18.03 4.66 32.96 5.17 50.94-.09 5.66-1.66 13.34-4.4 19.27-2.92q10.63 2.65 21.44 1.96c9.03-.58 19.4-4.74 28.16-5.79 5.7-.68 14.23-.05 20.64-1.2 19.18-3.44 37.03-14.9 46.7-31.93 7.91-13.94 8.04-30.94 3.91-46.41q-1.63-6.11-1.9-8.97c-.67-7.12 1.57-13.11 2.88-19.59 1.12-5.56.95-12.97-.45-18.5-1.34-5.31-2.3-11.05-5.36-15.66" vector-effect="non-scaling-stroke"/><path stroke="#e5e6f8" d="M174.06 265.31q2.68-1.24 10.25-5.64.89-.52 3.84-2.98 2.29-1.92 5.39-2.6a1.81 1.75 15.8 0 0 .86-.46q2.15-2.06 5.24-1.87.02 0 .03-.02.04-.13.08-.27.05-.19.24-.2c10.2-.54 17.68 4.19 27.35 5.08q.1.01.14.09.02.05.03.11.06.2.25.22 15.01 1.88 29.34-2.6.94-.3 2.84-.7c2.44-.52 5.07-1.87 6.93-2.3q9.9-2.26 19.77-.4 7.97 1.5 9.47 1.59 9.42.56 17.13-2.09 9.86-3.39 13.77-3.48c10.08-.22 20.5.16 30.23-2.86q.42-.14.54-.57.09-.35.43-.44c8.25-2.3 12.6-6.05 18.92-11.03q7.85-6.2 12.06-16.45.12-.3.54-.74.34-.35.47-.82c2.02-7.66 3.27-17.07 1.83-24.89-.94-5.18-2.92-9.9-3.13-14.67-.04-1.07-.94-2.12-1.09-3.39-.74-5.93-.21-9.71 1.64-16.12 4.42-15.31 2.96-31.86-11.89-40.38-11.72-6.72-24.9-.43-36.26 2.06-8.5 1.86-18.34.99-27.24 1.61q-1.89.14-8.42 2.37-.5.16-1 .03-.62-.17-.83.32-.19.43-.64.6-5.03 1.93-9.42 5.02-.22.15-.42.18-.15.03-.3.04-.24.01-.44.13l-8.57 5.07q-.22.13-.27.39-.04.22-.26.28-8.17 2.31-17.04 1.14c-8.96-1.17-17.34-1.53-26.34-.51-4.6.52-9.46 2.5-14.28 3.63q-.39.09-.52.47-.19.55-.77.76-5.26 1.86-10.25 4.33c-13.35 6.61-21.51.99-33.82-3.8q-6.4-2.49-17.97-2.58c-8.03-.06-15.88-.24-23.66 1.13-9.01 1.59-19.01 3.36-26.76 8.47-.59.38-.73 1.08-1.68 1.2q-.47.06-.83.37c-11.51 9.79-12.43 23.31-12.79 37.61q-.69 27.58-1.27 55.16c-.1 4.9 1.42 9.29 2.57 13.99.67 2.75 1 2.75 3.34 4.26 1.74 1.13 2.23 2.73 4.52 3.51q.42.14.52.56.24.96 1.19 1.22.57.16.77.71 1.1 2.99 4.24 3.68.56.13.88.62.79 1.23 2.27 1.2a.66.65 80.1 0 1 .65.46c1.85 5.64 8.57 4.84 13.48 4.29 17.41-1.98 30.91-2.97 44.12-9.1" vector-effect="non-scaling-stroke"/><path stroke="#b4b6ed" d="M131.64 269.96q16.35-1.14 32.22-5.41c2.03-.55 3.66-1.75 5.67-2.43 8.46-2.85 15.36-8.99 24.58-13.31 9.25-4.33 17.08-.72 25.59 1.98 16.48 5.22 32.57 1.59 47.07-3.99 5.5-2.12 10.16-2.5 16.29-1.22 4.94 1.02 9.77 2.45 14.65 2.5q10.68.11 18.36-3.01c12.66-5.15 25.08-1.15 37.83-4.7 1.75-.49 3.37-1.5 5.17-2.17 12.26-4.53 25.64-16.66 28.33-29.96 2.37-11.69.34-21.39-2.73-32.61-2.53-9.22-.98-15.05 1.82-24.22 2.51-8.2 2.25-19.53-3.62-26.49-2.83-3.36-5.02-6.76-9.66-7.84q-11.17-2.58-22.2.98-9.15 2.96-12.01 2.98c-9.47.05-20.59-.49-29.43 2.29-8.55 2.69-15.3 7.32-23.01 11.64-7.43 4.17-14.56 4.18-22.82 2.52-17.38-3.49-34.59.34-50.52 9.29-11.42 6.41-21.91-.61-32.67-4.22q-.38-.13-.58-.47-.16-.26-.48-.3-.46-.05-.54-.07-11.43-3.32-25.2-2.48c-12.83.78-27.12 1.39-37.2 7.55-15.94 9.74-16.3 26.42-15.78 43.89q.03 1.01-.33 2.58c-.39 1.76-.12 4.15-.16 5.37q-1 30.36-.83 43.12c.02 1.99.6 11.57 2.98 13.98q1.41 1.43 3.12 2.53.35.23.52.62 1.18 2.63 3.24 4.6.36.34.36.83c0 3.9 9.85 3.07 12.8 4.71 4.1 2.29 4.93 1.24 9.17.94" vector-effect="non-scaling-stroke"/><path stroke="#6874dc" d="M337.85 137.44q-.04-1.74-4.19-1.11a.84.84 0 0 0-.55 1.34q.69.92-.95 1.89" vector-effect="non-scaling-stroke"/><path stroke="#c9cbf2" d="m332.16 139.56-2.06-8.17q-.13-.51-.58-.79c-9.1-5.58-30.7 7.53-37.19 13.04" vector-effect="non-scaling-stroke"/><path stroke="#7e83e1" d="M292.33 143.64q.04-.41-.13-.74a.56.56 0 0 0-.77-.26c-7.32 3.85-12.79 5.72-21.19 4.61a.67.67 0 0 0-.49 1.2l3.02 2.28" vector-effect="non-scaling-stroke"/><path stroke="#c9cbf2" d="M272.77 150.73c-15.73-8.95-36.24-6.08-50.95 3.08" vector-effect="non-scaling-stroke"/><path stroke="#7e83e1" d="M221.82 153.81q-.88-1.11-3.63.38c-5.13 2.78-11.66 5.23-17.54 4.71q-4.73-.41-9.16-2.24-3-1.23-2.88.33" vector-effect="non-scaling-stroke"/><path stroke="#c9cbf2" d="M188.61 156.99q-8.89-6.49-17.81-7.58-10.17-1.25-14.31-.69-19.88 2.7-39.74 5.75-.56.09-.83.59-.33.63-1.17.42-.62-.15-.92.41l-1.47 2.75q-.13.24-.4.3-.2.04-.34.18-.2.19-.21.7-1.03 47.97-2.26 95.93c-.19 7.4 4.02 7.59 9.91 6.8q15.78-2.13 31.5-4.63 9.93-1.58 15.7-3.93 19.05-7.74 31.12-25.81" vector-effect="non-scaling-stroke"/><path stroke="#6874dc" d="m197.38 228.18-.67 3.24q-.12.56.45.52l3.63-.26a1.56 1.56 0 0 0 1.24-2.34l-1.99-3.4" vector-effect="non-scaling-stroke"/><path stroke="#c9cbf2" d="M200.04 225.94c2 2.24 3.62 4.85 5.38 6.67 17.84 18.48 48.26 14.27 66.36-1.03" vector-effect="non-scaling-stroke"/><path stroke="#7e83e1" d="M271.78 231.58q.02 1.2-.93 1.93a.37.37 0 0 0 .27.66q7.44-.76 15.62.93" vector-effect="non-scaling-stroke"/><path stroke="#c9cbf2" d="M286.74 235.1q.24 2.11 2.05 5.12.31.51.89.37.9-.21 1.31.63a1.08 1.07-12.6 0 0 .97.61c9.72-.07 21.64-5.76 29.2-10.85" vector-effect="non-scaling-stroke"/><path stroke="#7e83e1" d="M321.16 230.98q-.36 1.59 2.35 1.56 5.91-.06 9.92-1.44" vector-effect="non-scaling-stroke"/><path stroke="#c9cbf2" d="M333.43 231.1q2.51 5.04 9.65 3.39c15.8-3.65 31.06-11.27 36.66-27.28 1.11-3.17.5-7.04.75-10.79q.36-5.27-1.9-9.76-5.36-10.64-14.23-25.38" vector-effect="non-scaling-stroke"/><path stroke="#b4b6ed" d="M364.36 161.28q.33-.51.25-1.55" vector-effect="non-scaling-stroke"/><path stroke="#7e83e1" d="m364.61 159.73 2.34 4.34a.89.89 0 0 0 1.65-.23q.65-2.94.65-6.6 0-1.24-1.81-1.05" vector-effect="non-scaling-stroke"/><path stroke="#c9cbf2" d="M367.44 156.19c6.03-3.01 13.64-1.06 12.46-10.89q-.95-7.93-2.27-15.8c-1.67-9.89-9.12-7.21-15.92-5.25q-13.59 3.93-23.86 13.19" vector-effect="non-scaling-stroke"/><path stroke="#b4b7ee" d="M367.44 156.19q-1.66.3-3.23 1.62" vector-effect="non-scaling-stroke"/><path stroke="#eaeafa" d="M364.21 157.81q-.99-.08.15 3.47" vector-effect="non-scaling-stroke"/><path stroke="#b4b7ee" d="m333.43 231.1-2.25-11.05q-.06-.31-.21-.03-3.58 6.57-9.81 10.96M286.74 235.1q-2.46-8.6-3.07-16.37-.03-.33-.22-.06-5.05 7.16-11.67 12.91" vector-effect="non-scaling-stroke"/><path stroke="#9ea8e9" d="M200.04 225.94q.32-3.45-2.66 2.24" vector-effect="non-scaling-stroke"/><path stroke="#b4b7ee" d="M188.61 156.99c4.89 3.66 11.88 10.04 13.57 16.03q.16.55.47.07 7.48-11.74 19.17-19.28M272.77 150.73q6.03 3.36 10.84 8.84.33.36.43-.12 1.8-8.89 8.29-15.81" vector-effect="non-scaling-stroke"/><path stroke="#9ea8e9" d="m332.16 139.56.69 3.95q.09.56.43.1l4.57-6.17" vector-effect="non-scaling-stroke"/><path stroke="#9fa2e8" d="M364.61 159.73q-.01-1.31-.4-1.92" vector-effect="non-scaling-stroke"/><path stroke="#c9cbf2" d="M357.44 132.5q-1.69-.31-2.43 1.19" vector-effect="non-scaling-stroke"/><path stroke="#9ea8e9" d="M355.01 133.69c-16.89 6.71-24.76 23.13-14.85 39.65 6.23 10.38 12.93 18.55 12.32 28.4a1.3 1.26-21.1 0 1-.39.84l-2.67 2.59" vector-effect="non-scaling-stroke"/><path stroke="#8b97e4" d="M349.42 205.17q-6.37 3.57-13.27 4.35-.55.06-.55.61c0 5.54 2.37 12.77 3.46 18.19q.14.73.86.57c13.58-2.99 29.74-9.62 33.65-24.3" vector-effect="non-scaling-stroke"/><path stroke="#9ea8e9" d="M373.57 204.59c5.5-9.6-7.97-28.6-12.67-36.72" vector-effect="non-scaling-stroke"/><path stroke="#eaeafa" d="M360.9 167.87q-.22-2.83-2.45-5.62" vector-effect="non-scaling-stroke"/><path stroke="#9ea8e9" d="M358.45 162.25c.28-2.1-.85-3.66-.73-5.37.38-5.39 11.11-8.23 15.85-8.98a.6.6 0 0 0 .5-.68l-2.8-18.48q-.08-.54-.6-.38l-13.23 4.14" vector-effect="non-scaling-stroke"/><path stroke="#8893e3" d="m358.45 162.25 2.45 5.62" vector-effect="non-scaling-stroke"/><path stroke="#293fce" d="M373.57 204.59q-12.78-.66-24.15.58" vector-effect="non-scaling-stroke"/><path stroke="#6874dc" d="M355.01 133.69q1.19-.14 2.43-1.19" vector-effect="non-scaling-stroke"/><path stroke="#8b97e4" d="M306.74 204.88q.58 5.58-4.32 7.46-.36.14-.62.43-.31.35-1.09.66-5.31 2.1-10.13 2.83-1.53.23-1.2 1.75l3.74 17.2q.09.41.51.33c15.4-2.79 32.66-10.95 34.79-28.13" vector-effect="non-scaling-stroke"/><path stroke="#9ea8e9" d="M328.42 207.41q.35-9.24-4.66-17.66c-2.86-4.82-15.05-23.03-11.44-28.16 2.98-4.25 10.29-5.91 15.26-6.99q.61-.13.51-.74l-2.84-18.28q-.06-.4-.45-.32c-22.82 4.22-45.86 20.26-29.64 46.57 4.83 7.83 9.87 14.78 11.58 23.05" vector-effect="non-scaling-stroke"/><path stroke="#293fce" d="m328.42 207.41-.24-2.07q-.07-.55-.62-.54l-20.82.08" vector-effect="non-scaling-stroke"/><path stroke="#c9cbf2" d="M200.76 189.03q-.11-6.45-3.47-12.61" vector-effect="non-scaling-stroke"/><path stroke="#9ea8e9" d="M197.29 176.42q-11-19.3-32.03-21.44-5.48-.56-15.5.93-15.81 2.34-31.65 4.62-.5.07-.52.57l-1.3 43.37" vector-effect="non-scaling-stroke"/><path stroke="#8b97e4" d="m116.29 204.47-1.27 52.13a.31.31 0 0 0 .36.32q17.51-2.69 35.11-5.25c24.18-3.51 43.28-21.57 49.53-45a.23.22 50 0 1 .44.04c3.14 31 35.11 38.87 59.21 25.68q15.28-8.37 23.95-26.91" vector-effect="non-scaling-stroke"/><path stroke="#9ea8e9" d="M283.62 205.48q5.22-12.47 2.63-26.23-2.93-15.58-17.75-23.49c-14.56-7.77-32.43-4.33-45.41 4.96q-14.79 10.59-21.57 29.17a.54.53-1.4 0 1-.31.32q-.74.26-.45-1.18" vector-effect="non-scaling-stroke"/><path stroke="#293fce" d="m283.62 205.48-19.49-.75" vector-effect="non-scaling-stroke"/><path stroke="#9ea8e9" d="M264.13 204.73q4.45-7.49 3.95-16.31" vector-effect="non-scaling-stroke"/><path stroke="#6874dc" d="M268.08 188.42q.29-9.06-9.04-14.73" vector-effect="non-scaling-stroke"/><path stroke="#9ea8e9" d="m259.04 173.69-2.76-1.48" vector-effect="non-scaling-stroke"/><path stroke="#6874dc" d="M256.28 172.21q-1.83-1.12-3.56-.95" vector-effect="non-scaling-stroke"/><path stroke="#9ea8e9" d="M252.72 171.26c-15.07-3.13-28.49 7.95-33.04 21.73q-1.31 3.96.11 11.91" vector-effect="non-scaling-stroke"/><path stroke="#293fce" d="m219.79 204.9-41.13-.16" vector-effect="non-scaling-stroke"/><path stroke="#9ea8e9" d="m178.66 204.74.53-7.68" vector-effect="non-scaling-stroke"/><path stroke="#6874dc" d="M179.19 197.06q.1-9.76-7.98-15.44" vector-effect="non-scaling-stroke"/><path stroke="#9ea8e9" d="m171.21 181.62-3.67-2.38" vector-effect="non-scaling-stroke"/><path stroke="#6874dc" d="M167.54 179.24q-1.61-1.53-4.1-1.51" vector-effect="non-scaling-stroke"/><path stroke="#9ea8e9" d="M163.44 177.73c-7.69-1.42-16.21.39-23.93 1.65q-.51.08-.53.61l-.68 24.42" vector-effect="non-scaling-stroke"/><path stroke="#293fce" d="m138.3 204.41-22.01.06" vector-effect="non-scaling-stroke"/><path stroke="#6874dc" d="m197.29 176.42 3.47 12.61" vector-effect="non-scaling-stroke"/><path stroke="#c9cbf2" d="M252.72 171.26q1.7 1.21 3.56.95M259.04 173.69c2.76 3.01 5.78 5.47 7.24 9.27q1.04 2.71 1.8 5.46" vector-effect="non-scaling-stroke"/><path stroke="#8b97e4" d="M264.13 204.73c-6.87 11.05-20.87 18.24-33.29 12.89q-8.02-3.46-11.05-12.72" vector-effect="non-scaling-stroke"/><path stroke="#c9cbf2" d="M163.44 177.73q1.87 1.31 4.1 1.51M171.21 181.62c1.98 2.96 4.63 4.84 5.79 8.14q1.24 3.53 2.19 7.3" vector-effect="non-scaling-stroke"/><path stroke="#8b97e4" d="M178.66 204.74q-4.87 17.29-21.37 23.6-4.26 1.63-19.14 2.97-.46.05-.45-.42l.6-26.48M334.53 203.21q.02.28.3.24 5.83-.9 11.18-3.45a.63.63 0 0 0 .34-.67q-.84-4.56-2.23-6.92c-5.88-9.96-13.19-19.6-14.45-31.46q-.07-.6-.64-.42l-9.85 3.12a1.46 1.46 0 0 0-.98 1.72q.86 3.74 2.94 7.27c5.52 9.37 12.67 19.46 13.39 30.57" vector-effect="non-scaling-stroke"/><path stroke="#c9cbf2" d="M292.73 209.44q1.14.22 2.76-.94" vector-effect="non-scaling-stroke"/><path stroke="#8b97e4" d="m295.49 208.5 4.57-1.93a.67.67 0 0 0 .39-.76c-1.22-5.46-4.17-9.39-6.66-14.19a.42.42 0 0 0-.79.18q-.34 9.3-4.18 17.78-.23.51.32.43l3.59-.57" vector-effect="non-scaling-stroke"/><path stroke="#5563d7" d="M295.49 208.5q-1.9-.19-2.76.94" vector-effect="non-scaling-stroke"/><path stroke="#b4b7ee" d="M258.112 181.25a20.04 15.9-43.6 0 0-25.477 2.306 20.04 15.9-43.6 0 0-3.547 25.334 20.04 15.9-43.6 0 0 25.477-2.306 20.04 15.9-43.6 0 0 3.547-25.334" vector-effect="non-scaling-stroke"/><path stroke="#7e83e1" d="M250.91 187.95a10.07 9.01-45 0 0-13.491.749 10.07 9.01-45 0 0-.75 13.492 10.07 9.01-45 0 0 13.492-.75 10.07 9.01-45 0 0 .75-13.492" vector-effect="non-scaling-stroke"/><path stroke="#c9cbf2" d="M172.97 198.31q.41-3.77-1.13-5.6" vector-effect="non-scaling-stroke"/><path stroke="#b4b7ee" d="M171.84 192.71c-6.07-11.68-15.29-9.61-26.39-7.91q-.57.09-.59.67l-.99 38.28q-.01.46.46.43 8.08-.65 11.18-1.93c9.79-4.02 17.47-13.06 17.46-23.94" vector-effect="non-scaling-stroke"/><path stroke="#7e83e1" d="m171.84 192.71 1.13 5.6M168.02 196.48c-2.12-7.53-11.33-9.57-17.13-5.17-1.61 1.21-2.42 3.4-4.02 4.97q-.36.35-.33.85c.19 3.07-2.22 7.66.05 10.25a1.41 1.38-66.5 0 1 .34.89q.01 2.61 2.25 4.52 5.18 4.39 11.23 2.2a1.79 1.69 8.7 0 0 .72-.5q.62-.74 1.54-.56a.97.97 0 0 0 .86-.27q7.27-7.34 4.49-17.18" vector-effect="non-scaling-stroke"/><path stroke="#fafbfe" d="m356.33 388.02 1.2-1.12a.75.75 0 0 0-.38-1.28c-6.23-1.15-9.3 3.53-6.93 9.12a1.3 1.3 0 0 0 2.36.08q1.19-2.38 3.5-3.99 1.27-.89.25-1.89-.48-.46 0-.92M414.25 390.13l.8 4.55a.44.44 0 0 0 .8.17q1.43-2.12 1.37-4.74-.02-.53.35-.92l1.73-1.81a.69.69 0 0 0-.4-1.15q-3.77-.56-6.74 1.65a.89.89 0 0 0 .49 1.6l.92.05q.58.03.68.6M361.96 391.49q-.89-.7-.52-3 .24-1.54-1.31-1.41-1.04.08-1.56.72-.72.88-.72.96l.23 5.57q.04.82.86.9 2.6.25 4.79-.95a1.48 1.4 41.7 0 0-.22-2.58q-.17-.07-.8-.04-.5.03-.75-.17M370.63 393.5q.22.33.1.77-.2.78.6.74l1.42-.09q.82-.04.79-.86l-.14-5.73a.65.64-80.7 0 0-.42-.59c-4.79-1.75-5.89 3.42-7.55 6.54a1.02 1.02 0 0 0 1.54 1.27l2.69-2.19a.66.65-36.4 0 1 .97.14M388.7 394.84l1.78-.09a.53.53 0 0 0 .51-.56l-.19-3.63a3.09 1.24 87.1 0 0-1.39-3.02l-.36.01a3.09 1.24 87.1 0 0-1.09 3.15l.19 3.64a.53.53 0 0 0 .55.5M464.72 395q5.56.26 5.96-5.25a1.76 1.76 0 0 0-1.09-1.75c-4.27-1.72-9.52 2.16-5.94 6.47a1.49 1.44-17.8 0 0 1.07.53M382.48 390.53l.3-.18q.62-.37.66.36l.2 3.46a1.12 1.12 0 0 0 2.2.22q.78-2.98.04-6.1a.71.71 0 0 0-.74-.54l-8.84.7q-.69.05-.7.75l-.04 4.22a1.36 1.36 0 0 0 2.67.35l.81-3.14a.36.36 0 0 1 .71.09v3.53a.56.56 0 0 0 .77.52q2.27-.95 1.66-3.55a.64.63 69.1 0 1 .3-.69M405.26 391.9q-1.4-.31-.84-1.74.58-1.48 2.5-1.23.31.04.49-.05.24-.12.38-.31.35-.48-.24-.6c-5.02-1.05-8.32 4.54-3.34 7a1.29 1.28 46.4 0 0 1.07.03q1.04-.44 1.89.32a1.24 1.24 0 0 0 2.07-.91l.02-3.91q0-.5-.51-.5h-2.25q-.75 0-.75.75v.76q0 .5-.49.39M434.07 393.71l.49.82a.92.9 74.9 0 0 .76.45q1.59.05 1.88-1.64a1.36 1.33 26.6 0 0-.42-1.21q-2.06-1.86.23-3.43a.46.46 0 0 0-.27-.84q-1.14.03-1.87.9a.52.52 0 0 1-.62.14l-1.7-.79a1.44 1.43 79 0 0-1.58 2.35q1.43 1.33.14 2.72a.58.58 0 0 0-.08.68l.29.47a.53.52 53.6 0 0 .8.13l.97-.89q.58-.53.98.14M442.08 390.97l.25 3.52a.54.54 0 0 0 .82.42c2.4-1.48.02-4.34 3.44-5.49a.67.67 0 0 0-.02-1.27q-3.92-1.16-7.05 1.28a.56.55-67.5 0 0 .41.99l1.29-.16a.77.76-5.3 0 1 .86.71M460.29 388.04c-8.98-2.6-8.64 10.81-1.26 5.67a.94.94 0 0 0-.54-1.71h-1.75a.87.86 22.7 0 1-.61-1.48c1.28-1.26 3.33.53 4.49-1.74a.52.52 0 0 0-.33-.74M476.15 390.6l-.18 2.71a1.07 1.07 0 0 0 2.05.51q.63-1.4.46-3.04a.38.38 0 0 1 .26-.41l.5-.15a.61.61 0 0 1 .79.6l-.14 3.42q-.02.52.5.65 1.03.25 1.57-.89 1.47-3.09-.37-5.77-.28-.42-.79-.37l-7.63.83q-.69.07-.83.75-.55 2.66.55 5.06.28.61.77.16c1.31-1.19 1.21-4.11 1.83-4.47q.71-.4.66.41M397.1 390.65q.22 1.5.38 2.99a.91.91 0 0 0 1.74.24q1.1-2.75.05-5.67a.62.62 0 0 0-.83-.36q-2.6 1.15-5.37.63-.58-.11-.54.47l.3 5.36a.59.59 0 0 0 .83.5q2.03-.92 1.73-3.32a1.09.79-62 0 1 1.71-.84M449.534 394.986a1.39 1.12 106.1 0 0 1.462-1.025 1.39 1.12 106.1 0 0-.69-1.647 1.39 1.12 106.1 0 0-1.462 1.025 1.39 1.12 106.1 0 0 .69 1.647" vector-effect="non-scaling-stroke"/><path stroke="#fafbfe" d="m465.55 391.43 1.24.75a1.01 1.01 0 0 0 1.17-1.64q-1.08-.92-2.35-.34a.7.69 48 0 0-.06 1.23" vector-effect="non-scaling-stroke"/></g><path fill="#fff" d="M0 0h488v400h-9.34c3.51-.4 7.64.39 8.57-4.01.83-3.91 1.15-12.11-4.17-13.06-3.66-.66-7.84-.92-12.1-.13-9.09 1.68-19.61-1.07-30.55-.52-3.54.18-7.08-.11-10.69.18-11.31.92-23.55.63-34.89.53q-12.11-.11-24.18.82c-2.71.21-7.34 1.48-10.58.86q-3.74-.71-5.84-.65-.39.01-.66.29l-.26.26q-.38.38-.9.53c-5.23 1.48-5.13 7.32-4.44 11.97a.71.7 89.9 0 0 .58.59c3.39.6 6.45-.31 9.68.17 4.06.6 7.83.03 11.74.63q5.4.84 7.12.89c11.84.33 23.61.4 35.25-.09q6.88-.29 14.18.07 10.71.54 21.43.17c11.21-.39 20.24-.02 30.49.5H0V0Zm396.66 116.21c-8.3-12.5-21.31-17.73-36.09-16.12-7.93.86-18.01 4.7-26.51 5.48-6.93.63-14.2.13-20.59 1.29-10.08 1.83-18.02 5.51-27.57 10.86q-4.86 2.73-7.53 3.59c-6.41 2.06-15.39.87-21.89.02-9.37-1.22-20.18.82-28.98 3.35-6 1.73-13 5.16-19.49 7.7-8.33 3.26-19.6-3.48-27.63-5.52-20.01-5.07-42.81-1.98-62.54 3.05-19.61 5-31.13 21.03-31.31 41q0 .24-.23.31-.25.07-.25.28-.03 5.17-.07 10.34 0 .08-.07.11l-.24.08q-.14.04-.13.19c.39 8.64-.77 18.13-.78 25.69-.01 14.26-1.12 26.79-.21 39.66q.05.79 1.34 2.21a1.13 1.12-61 0 1 .26.93l-.74 3.96q-.11.57.43.79 1.72.68 3.51-.03a.94.93 65.4 0 1 1.17.44q.57 1.08 1.68 1.6a1.05 1.03 6.8 0 1 .57.71c.89 4.21 2.74 5.59 6.78 7.37q4.68 2.06 6.03 7.87.56 2.41 3.15 2.8.48.07.81.42c3.23 3.4 7.62 4.32 12.02 8.05q.39.33.89.24 2-.36 3.22 1.24.27.34.7.32 20.19-1.26 35.39-5.22c14.59-3.8 23.24-8.9 34.76-15.24 3.73-2.05 9.31-1.91 13.91-.72 18.03 4.66 32.96 5.17 50.94-.09 5.66-1.66 13.34-4.4 19.27-2.92q10.63 2.65 21.44 1.96c9.03-.58 19.4-4.74 28.16-5.79 5.7-.68 14.23-.05 20.64-1.2 19.18-3.44 37.03-14.9 46.7-31.93 7.91-13.94 8.04-30.94 3.91-46.41q-1.63-6.11-1.9-8.97c-.67-7.12 1.57-13.11 2.88-19.59 1.12-5.56.95-12.97-.45-18.5-1.34-5.31-2.3-11.05-5.36-15.66Z"/><path fill="#f5f6fc" d="M396.66 116.21c3.06 4.61 4.02 10.35 5.36 15.66 1.4 5.53 1.57 12.94.45 18.5-1.31 6.48-3.55 12.47-2.88 19.59q.27 2.86 1.9 8.97c4.13 15.47 4 32.47-3.91 46.41-9.67 17.03-27.52 28.49-46.7 31.93-6.41 1.15-14.94.52-20.64 1.2-8.76 1.05-19.13 5.21-28.16 5.79q-10.81.69-21.44-1.96c-5.93-1.48-13.61 1.26-19.27 2.92-17.98 5.26-32.91 4.75-50.94.09-4.6-1.19-10.18-1.33-13.91.72-11.52 6.34-20.17 11.44-34.76 15.24q-15.2 3.96-35.39 5.22-.43.02-.7-.32-1.22-1.6-3.22-1.24-.5.09-.89-.24c-4.4-3.73-8.79-4.65-12.02-8.05q-.33-.35-.81-.42-2.59-.39-3.15-2.8-1.35-5.81-6.03-7.87c-4.04-1.78-5.89-3.16-6.78-7.37a1.05 1.03 6.8 0 0-.57-.71q-1.11-.52-1.68-1.6a.94.93 65.4 0 0-1.17-.44q-1.79.71-3.51.03-.54-.22-.43-.79l.74-3.96a1.13 1.12-61 0 0-.26-.93q-1.29-1.42-1.34-2.21c-.91-12.87.2-25.4.21-39.66.01-7.56 1.17-17.05.78-25.69q-.01-.15.13-.19l.24-.08q.07-.03.07-.11.04-5.17.07-10.34 0-.21.25-.28.23-.07.23-.31c.18-19.97 11.7-36 31.31-41 19.73-5.03 42.53-8.12 62.54-3.05 8.03 2.04 19.3 8.78 27.63 5.52 6.49-2.54 13.49-5.97 19.49-7.7 8.8-2.53 19.61-4.57 28.98-3.35 6.5.85 15.48 2.04 21.89-.02q2.67-.86 7.53-3.59c9.55-5.35 17.49-9.03 27.57-10.86 6.39-1.16 13.66-.66 20.59-1.29 8.5-.78 18.58-4.62 26.51-5.48 14.78-1.61 27.79 3.62 36.09 16.12Zm-222.6 149.1q2.68-1.24 10.25-5.64.89-.52 3.84-2.98 2.29-1.92 5.39-2.6a1.81 1.75 15.8 0 0 .86-.46q2.15-2.06 5.24-1.87.02 0 .03-.02.04-.13.08-.27.05-.19.24-.2c10.2-.54 17.68 4.19 27.35 5.08q.1.01.14.09.02.05.03.11.06.2.25.22 15.01 1.88 29.34-2.6.94-.3 2.84-.7c2.44-.52 5.07-1.87 6.93-2.3q9.9-2.26 19.77-.4 7.97 1.5 9.47 1.59 9.42.56 17.13-2.09 9.86-3.39 13.77-3.48c10.08-.22 20.5.16 30.23-2.86q.42-.14.54-.57.09-.35.43-.44c8.25-2.3 12.6-6.05 18.92-11.03q7.85-6.2 12.06-16.45.12-.3.54-.74.34-.35.47-.82c2.02-7.66 3.27-17.07 1.83-24.89-.94-5.18-2.92-9.9-3.13-14.67-.04-1.07-.94-2.12-1.09-3.39-.74-5.93-.21-9.71 1.64-16.12 4.42-15.31 2.96-31.86-11.89-40.38-11.72-6.72-24.9-.43-36.26 2.06-8.5 1.86-18.34.99-27.24 1.61q-1.89.14-8.42 2.37-.5.16-1 .03-.62-.17-.83.32-.19.43-.64.6-5.03 1.93-9.42 5.02-.22.15-.42.18-.15.03-.3.04-.24.01-.44.13l-8.57 5.07q-.22.13-.27.39-.04.22-.26.28-8.17 2.31-17.04 1.14c-8.96-1.17-17.34-1.53-26.34-.51-4.6.52-9.46 2.5-14.28 3.63q-.39.09-.52.47-.19.55-.77.76-5.26 1.86-10.25 4.33c-13.35 6.61-21.51.99-33.82-3.8q-6.4-2.49-17.97-2.58c-8.03-.06-15.88-.24-23.66 1.13-9.01 1.59-19.01 3.36-26.76 8.47-.59.38-.73 1.08-1.68 1.2q-.47.06-.83.37c-11.51 9.79-12.43 23.31-12.79 37.61q-.69 27.58-1.27 55.16c-.1 4.9 1.42 9.29 2.57 13.99.67 2.75 1 2.75 3.34 4.26 1.74 1.13 2.23 2.73 4.52 3.51q.42.14.52.56.24.96 1.19 1.22.57.16.77.71 1.1 2.99 4.24 3.68.56.13.88.62.79 1.23 2.27 1.2a.66.65 80.1 0 1 .65.46c1.85 5.64 8.57 4.84 13.48 4.29 17.41-1.98 30.91-2.97 44.12-9.1Z"/><path fill="#d4d5f4" d="M174.06 265.31c-13.21 6.13-26.71 7.12-44.12 9.1-4.91.55-11.63 1.35-13.48-4.29a.66.65 80.1 0 0-.65-.46q-1.48.03-2.27-1.2-.32-.49-.88-.62-3.14-.69-4.24-3.68-.2-.55-.77-.71-.95-.26-1.19-1.22-.1-.42-.52-.56c-2.29-.78-2.78-2.38-4.52-3.51-2.34-1.51-2.67-1.51-3.34-4.26-1.15-4.7-2.67-9.09-2.57-13.99q.58-27.58 1.27-55.16c.36-14.3 1.28-27.82 12.79-37.61q.36-.31.83-.37c.95-.12 1.09-.82 1.68-1.2 7.75-5.11 17.75-6.88 26.76-8.47 7.78-1.37 15.63-1.19 23.66-1.13q11.57.09 17.97 2.58c12.31 4.79 20.47 10.41 33.82 3.8q4.99-2.47 10.25-4.33.58-.21.77-.76.13-.38.52-.47c4.82-1.13 9.68-3.11 14.28-3.63 9-1.02 17.38-.66 26.34.51q8.87 1.17 17.04-1.14.22-.06.26-.28.05-.26.27-.39l8.57-5.07q.2-.12.44-.13.15-.01.3-.04.2-.03.42-.18 4.39-3.09 9.42-5.02.45-.17.64-.6.21-.49.83-.32.5.13 1-.03 6.53-2.23 8.42-2.37c8.9-.62 18.74.25 27.24-1.61 11.36-2.49 24.54-8.78 36.26-2.06 14.85 8.52 16.31 25.07 11.89 40.38-1.85 6.41-2.38 10.19-1.64 16.12.15 1.27 1.05 2.32 1.09 3.39.21 4.77 2.19 9.49 3.13 14.67 1.44 7.82.19 17.23-1.83 24.89q-.13.47-.47.82-.42.44-.54.74-4.21 10.25-12.06 16.45c-6.32 4.98-10.67 8.73-18.92 11.03q-.34.09-.43.44-.12.43-.54.57c-9.73 3.02-20.15 2.64-30.23 2.86q-3.91.09-13.77 3.48-7.71 2.65-17.13 2.09-1.5-.09-9.47-1.59-9.87-1.86-19.77.4c-1.86.43-4.49 1.78-6.93 2.3q-1.9.4-2.84.7-14.33 4.48-29.34 2.6-.19-.02-.25-.22-.01-.06-.03-.11-.04-.08-.14-.09c-9.67-.89-17.15-5.62-27.35-5.08q-.19.01-.24.2-.04.14-.08.27-.01.02-.03.02-3.09-.19-5.24 1.87a1.81 1.75 15.8 0 1-.86.46q-3.1.68-5.39 2.6-2.95 2.46-3.84 2.98-7.57 4.4-10.25 5.64Zm-42.42 4.65q16.35-1.14 32.22-5.41c2.03-.55 3.66-1.75 5.67-2.43 8.46-2.85 15.36-8.99 24.58-13.31 9.25-4.33 17.08-.72 25.59 1.98 16.48 5.22 32.57 1.59 47.07-3.99 5.5-2.12 10.16-2.5 16.29-1.22 4.94 1.02 9.77 2.45 14.65 2.5q10.68.11 18.36-3.01c12.66-5.15 25.08-1.15 37.83-4.7 1.75-.49 3.37-1.5 5.17-2.17 12.26-4.53 25.64-16.66 28.33-29.96 2.37-11.69.34-21.39-2.73-32.61-2.53-9.22-.98-15.05 1.82-24.22 2.51-8.2 2.25-19.53-3.62-26.49-2.83-3.36-5.02-6.76-9.66-7.84q-11.17-2.58-22.2.98-9.15 2.96-12.01 2.98c-9.47.05-20.59-.49-29.43 2.29-8.55 2.69-15.3 7.32-23.01 11.64-7.43 4.17-14.56 4.18-22.82 2.52-17.38-3.49-34.59.34-50.52 9.29-11.42 6.41-21.91-.61-32.67-4.22q-.38-.13-.58-.47-.16-.26-.48-.3-.46-.05-.54-.07-11.43-3.32-25.2-2.48c-12.83.78-27.12 1.39-37.2 7.55-15.94 9.74-16.3 26.42-15.78 43.89q.03 1.01-.33 2.58c-.39 1.76-.12 4.15-.16 5.37q-1 30.36-.83 43.12c.02 1.99.6 11.57 2.98 13.98q1.41 1.43 3.12 2.53.35.23.52.62 1.18 2.63 3.24 4.6.36.34.36.83c0 3.9 9.85 3.07 12.8 4.71 4.1 2.29 4.93 1.24 9.17.94Z"/><path fill="#9397e5" d="M131.64 269.96c-4.24.3-5.07 1.35-9.17-.94-2.95-1.64-12.8-.81-12.8-4.71q0-.49-.36-.83-2.06-1.97-3.24-4.6-.17-.39-.52-.62-1.71-1.1-3.12-2.53c-2.38-2.41-2.96-11.99-2.98-13.98q-.17-12.76.83-43.12c.04-1.22-.23-3.61.16-5.37q.36-1.57.33-2.58c-.52-17.47-.16-34.15 15.78-43.89 10.08-6.16 24.37-6.77 37.2-7.55q13.77-.84 25.2 2.48.08.02.54.07.32.04.48.3.2.34.58.47c10.76 3.61 21.25 10.63 32.67 4.22 15.93-8.95 33.14-12.78 50.52-9.29 8.26 1.66 15.39 1.65 22.82-2.52 7.71-4.32 14.46-8.95 23.01-11.64 8.84-2.78 19.96-2.24 29.43-2.29q2.86-.02 12.01-2.98 11.03-3.56 22.2-.98c4.64 1.08 6.83 4.48 9.66 7.84 5.87 6.96 6.13 18.29 3.62 26.49-2.8 9.17-4.35 15-1.82 24.22 3.07 11.22 5.1 20.92 2.73 32.61-2.69 13.3-16.07 25.43-28.33 29.96-1.8.67-3.42 1.68-5.17 2.17-12.75 3.55-25.17-.45-37.83 4.7q-7.68 3.12-18.36 3.01c-4.88-.05-9.71-1.48-14.65-2.5-6.13-1.28-10.79-.9-16.29 1.22-14.5 5.58-30.59 9.21-47.07 3.99-8.51-2.7-16.34-6.31-25.59-1.98-9.22 4.32-16.12 10.46-24.58 13.31-2.01.68-3.64 1.88-5.67 2.43q-15.87 4.27-32.22 5.41Zm206.21-132.52q-.04-1.74-4.19-1.11a.84.84 0 0 0-.55 1.34q.69.92-.95 1.89l-2.06-8.17q-.13-.51-.58-.79c-9.1-5.58-30.7 7.53-37.19 13.04q.04-.41-.13-.74a.56.56 0 0 0-.77-.26c-7.32 3.85-12.79 5.72-21.19 4.61a.67.67 0 0 0-.49 1.2l3.02 2.28c-15.73-8.95-36.24-6.08-50.95 3.08q-.88-1.11-3.63.38c-5.13 2.78-11.66 5.23-17.54 4.71q-4.73-.41-9.16-2.24-3-1.23-2.88.33-8.89-6.49-17.81-7.58-10.17-1.25-14.31-.69-19.88 2.7-39.74 5.75-.56.09-.83.59-.33.63-1.17.42-.62-.15-.92.41l-1.47 2.75q-.13.24-.4.3-.2.04-.34.18-.2.19-.21.7-1.03 47.97-2.26 95.93c-.19 7.4 4.02 7.59 9.91 6.8q15.78-2.13 31.5-4.63 9.93-1.58 15.7-3.93 19.05-7.74 31.12-25.81l-.67 3.24q-.12.56.45.52l3.63-.26a1.56 1.56 0 0 0 1.24-2.34l-1.99-3.4c2 2.24 3.62 4.85 5.38 6.67 17.84 18.48 48.26 14.27 66.36-1.03q.02 1.2-.93 1.93a.37.37 0 0 0 .27.66q7.44-.76 15.62.93.24 2.11 2.05 5.12.31.51.89.37.9-.21 1.31.63a1.08 1.07-12.6 0 0 .97.61c9.72-.07 21.64-5.76 29.2-10.85q-.36 1.59 2.35 1.56 5.91-.06 9.92-1.44 2.51 5.04 9.65 3.39c15.8-3.65 31.06-11.27 36.66-27.28 1.11-3.17.5-7.04.75-10.79q.36-5.27-1.9-9.76-5.36-10.64-14.23-25.38.33-.51.25-1.55l2.34 4.34a.89.89 0 0 0 1.65-.23q.65-2.94.65-6.6 0-1.24-1.81-1.05c6.03-3.01 13.64-1.06 12.46-10.89q-.95-7.93-2.27-15.8c-1.67-9.89-9.12-7.21-15.92-5.25q-13.59 3.93-23.86 13.19Z"/><path fill="#fff" d="M367.44 156.19q-1.66.3-3.23 1.62-.99-.08.15 3.47 8.87 14.74 14.23 25.38 2.26 4.49 1.9 9.76c-.25 3.75.36 7.62-.75 10.79-5.6 16.01-20.86 23.63-36.66 27.28q-7.14 1.65-9.65-3.39l-2.25-11.05q-.06-.31-.21-.03-3.58 6.57-9.81 10.96c-7.56 5.09-19.48 10.78-29.2 10.85a1.08 1.07-12.6 0 1-.97-.61q-.41-.84-1.31-.63-.58.14-.89-.37-1.81-3.01-2.05-5.12-2.46-8.6-3.07-16.37-.03-.33-.22-.06-5.05 7.16-11.67 12.91c-18.1 15.3-48.52 19.51-66.36 1.03-1.76-1.82-3.38-4.43-5.38-6.67q.32-3.45-2.66 2.24-12.07 18.07-31.12 25.81-5.77 2.35-15.7 3.93-15.72 2.5-31.5 4.63c-5.89.79-10.1.6-9.91-6.8q1.23-47.96 2.26-95.93.01-.51.21-.7.14-.14.34-.18.27-.06.4-.3l1.47-2.75q.3-.56.92-.41.84.21 1.17-.42.27-.5.83-.59 19.86-3.05 39.74-5.75 4.14-.56 14.31.69 8.92 1.09 17.81 7.58c4.89 3.66 11.88 10.04 13.57 16.03q.16.55.47.07 7.48-11.74 19.17-19.28c14.71-9.16 35.22-12.03 50.95-3.08q6.03 3.36 10.84 8.84.33.36.43-.12 1.8-8.89 8.29-15.81c6.49-5.51 28.09-18.62 37.19-13.04q.45.28.58.79l2.06 8.17.69 3.95q.09.56.43.1l4.57-6.17q10.27-9.26 23.86-13.19c6.8-1.96 14.25-4.64 15.92 5.25q1.32 7.87 2.27 15.8c1.18 9.83-6.43 7.88-12.46 10.89Zm-10-23.69q-1.69-.31-2.43 1.19c-16.89 6.71-24.76 23.13-14.85 39.65 6.23 10.38 12.93 18.55 12.32 28.4a1.3 1.26-21.1 0 1-.39.84l-2.67 2.59q-6.37 3.57-13.27 4.35-.55.06-.55.61c0 5.54 2.37 12.77 3.46 18.19q.14.73.86.57c13.58-2.99 29.74-9.62 33.65-24.3 5.5-9.6-7.97-28.6-12.67-36.72q-.22-2.83-2.45-5.62c.28-2.1-.85-3.66-.73-5.37.38-5.39 11.11-8.23 15.85-8.98a.6.6 0 0 0 .5-.68l-2.8-18.48q-.08-.54-.6-.38l-13.23 4.14Zm-50.7 72.38q.58 5.58-4.32 7.46-.36.14-.62.43-.31.35-1.09.66-5.31 2.1-10.13 2.83-1.53.23-1.2 1.75l3.74 17.2q.09.41.51.33c15.4-2.79 32.66-10.95 34.79-28.13q.35-9.24-4.66-17.66c-2.86-4.82-15.05-23.03-11.44-28.16 2.98-4.25 10.29-5.91 15.26-6.99q.61-.13.51-.74l-2.84-18.28q-.06-.4-.45-.32c-22.82 4.22-45.86 20.26-29.64 46.57 4.83 7.83 9.87 14.78 11.58 23.05Zm-105.98-15.85q-.11-6.45-3.47-12.61-11-19.3-32.03-21.44-5.48-.56-15.5.93-15.81 2.34-31.65 4.62-.5.07-.52.57l-1.3 43.37-1.27 52.13a.31.31 0 0 0 .36.32q17.51-2.69 35.11-5.25c24.18-3.51 43.28-21.57 49.53-45a.23.22 50 0 1 .44.04c3.14 31 35.11 38.87 59.21 25.68q15.28-8.37 23.95-26.91 5.22-12.47 2.63-26.23-2.93-15.58-17.75-23.49c-14.56-7.77-32.43-4.33-45.41 4.96q-14.79 10.59-21.57 29.17a.54.53-1.4 0 1-.31.32q-.74.26-.45-1.18Zm133.77 14.18q.02.28.3.24 5.83-.9 11.18-3.45a.63.63 0 0 0 .34-.67q-.84-4.56-2.23-6.92c-5.88-9.96-13.19-19.6-14.45-31.46q-.07-.6-.64-.42l-9.85 3.12a1.46 1.46 0 0 0-.98 1.72q.86 3.74 2.94 7.27c5.52 9.37 12.67 19.46 13.39 30.57Zm-41.8 6.23q1.14.22 2.76-.94l4.57-1.93a.67.67 0 0 0 .39-.76c-1.22-5.46-4.17-9.39-6.66-14.19a.42.42 0 0 0-.79.18q-.34 9.3-4.18 17.78-.23.51.32.43l3.59-.57Z"/><path fill="#3c50d2" d="m358.45 162.25 2.45 5.62c4.7 8.12 18.17 27.12 12.67 36.72q-12.78-.66-24.15.58l2.67-2.59a1.3 1.26-21.1 0 0 .39-.84c.61-9.85-6.09-18.02-12.32-28.4-9.91-16.52-2.04-32.94 14.85-39.65q1.19-.14 2.43-1.19l13.23-4.14q.52-.16.6.38l2.8 18.48a.6.6 0 0 1-.5.68c-4.74.75-15.47 3.59-15.85 8.98-.12 1.71 1.01 3.27.73 5.37Z"/><path fill="#9397e5" d="M357.44 132.5q-1.24 1.05-2.43 1.19.74-1.5 2.43-1.19Z"/><path fill="#3c50d2" d="m328.42 207.41-.24-2.07q-.07-.55-.62-.54l-20.82.08c-1.71-8.27-6.75-15.22-11.58-23.05-16.22-26.31 6.82-42.35 29.64-46.57q.39-.08.45.32l2.84 18.28q.1.61-.51.74c-4.97 1.08-12.28 2.74-15.26 6.99-3.61 5.13 8.58 23.34 11.44 28.16q5.01 8.42 4.66 17.66ZM337.85 137.44l-4.57 6.17q-.34.46-.43-.1l-.69-3.95q1.64-.97.95-1.89a.84.84 0 0 1 .55-1.34q4.15-.63 4.19 1.11Z"/><path fill="#696fdc" d="M292.33 143.64q-6.49 6.92-8.29 15.81-.1.48-.43.12-4.81-5.48-10.84-8.84l-3.02-2.28a.67.67 0 0 1 .49-1.2c8.4 1.11 13.87-.76 21.19-4.61a.56.56 0 0 1 .77.26q.17.33.13.74Z"/><path fill="#3c50d2" d="m283.62 205.48-19.49-.75q4.45-7.49 3.95-16.31.29-9.06-9.04-14.73l-2.76-1.48q-1.83-1.12-3.56-.95c-15.07-3.13-28.49 7.95-33.04 21.73q-1.31 3.96.11 11.91l-41.13-.16.53-7.68q.1-9.76-7.98-15.44l-3.67-2.38q-1.61-1.53-4.1-1.51c-7.69-1.42-16.21.39-23.93 1.65q-.51.08-.53.61l-.68 24.42-22.01.06 1.3-43.37q.02-.5.52-.57 15.84-2.28 31.65-4.62 10.02-1.49 15.5-.93 21.03 2.14 32.03 21.44l3.47 12.61q-.29 1.44.45 1.18a.54.53-1.4 0 0 .31-.32q6.78-18.58 21.57-29.17c12.98-9.29 30.85-12.73 45.41-4.96q14.82 7.91 17.75 23.49 2.59 13.76-2.63 26.23Z"/><path fill="#696fdc" d="M221.82 153.81q-11.69 7.54-19.17 19.28-.31.48-.47-.07c-1.69-5.99-8.68-12.37-13.57-16.03q-.12-1.56 2.88-.33 4.43 1.83 9.16 2.24c5.88.52 12.41-1.93 17.54-4.71q2.75-1.49 3.63-.38ZM367.44 156.19q1.81-.19 1.81 1.05 0 3.66-.65 6.6a.89.89 0 0 1-1.65.23l-2.34-4.34q-.01-1.31-.4-1.92 1.57-1.32 3.23-1.62Z"/><path fill="#d4d5f4" d="M364.21 157.81q.39.61.4 1.92.08 1.04-.25 1.55-1.14-3.55-.15-3.47Z"/><path fill="#162ec9" d="M334.53 203.21c-.72-11.11-7.87-21.2-13.39-30.57q-2.08-3.53-2.94-7.27a1.46 1.46 0 0 1 .98-1.72l9.85-3.12q.57-.18.64.42c1.26 11.86 8.57 21.5 14.45 31.46q1.39 2.36 2.23 6.92a.63.63 0 0 1-.34.67q-5.35 2.55-11.18 3.45-.28.04-.3-.24Z"/><path fill="#d4d5f4" d="M358.45 162.25q2.23 2.79 2.45 5.62l-2.45-5.62Z"/><path fill="#fff" d="M252.72 171.26q1.7 1.21 3.56.95l2.76 1.48c2.76 3.01 5.78 5.47 7.24 9.27q1.04 2.71 1.8 5.46.5 8.82-3.95 16.31c-6.87 11.05-20.87 18.24-33.29 12.89q-8.02-3.46-11.05-12.72-1.42-7.95-.11-11.91c4.55-13.78 17.97-24.86 33.04-21.73Zm5.392 9.99a20.04 15.9-43.6 0 0-25.477 2.306 20.04 15.9-43.6 0 0-3.547 25.334 20.04 15.9-43.6 0 0 25.477-2.306 20.04 15.9-43.6 0 0 3.547-25.334Z"/><path fill="#9397e5" d="M252.72 171.26q1.73-.17 3.56.95-1.86.26-3.56-.95ZM259.04 173.69q9.33 5.67 9.04 14.73-.76-2.75-1.8-5.46c-1.46-3.8-4.48-6.26-7.24-9.27ZM197.29 176.42q3.36 6.16 3.47 12.61l-3.47-12.61Z"/><path fill="#696fdc" d="M258.112 181.25a20.04 15.9-43.6 0 1-3.547 25.334 20.04 15.9-43.6 0 1-25.477 2.306 20.04 15.9-43.6 0 1 3.547-25.334 20.04 15.9-43.6 0 1 25.477-2.306Zm-7.201 6.7a10.07 9.01-45 0 0-13.492.749 10.07 9.01-45 0 0-.75 13.492 10.07 9.01-45 0 0 13.492-.75 10.07 9.01-45 0 0 .75-13.492Z"/><path fill="#fff" d="M163.44 177.73q1.87 1.31 4.1 1.51l3.67 2.38c1.98 2.96 4.63 4.84 5.79 8.14q1.24 3.53 2.19 7.3l-.53 7.68q-4.87 17.29-21.37 23.6-4.26 1.63-19.14 2.97-.46.05-.45-.42l.6-26.48.68-24.42q.02-.53.53-.61c7.72-1.26 16.24-3.07 23.93-1.65Zm9.53 20.58q.41-3.77-1.13-5.6c-6.07-11.68-15.29-9.61-26.39-7.91q-.57.09-.59.67l-.99 38.28q-.01.46.46.43 8.08-.65 11.18-1.93c9.79-4.02 17.47-13.06 17.46-23.94Z"/><path fill="#9397e5" d="M163.44 177.73q2.49-.02 4.1 1.51-2.23-.2-4.1-1.51ZM171.21 181.62q8.08 5.68 7.98 15.44-.95-3.77-2.19-7.3c-1.16-3.3-3.81-5.18-5.79-8.14Z"/><path fill="#696fdc" d="m171.84 192.71 1.13 5.6c.01 10.88-7.67 19.92-17.46 23.94q-3.1 1.28-11.18 1.93-.47.03-.46-.43l.99-38.28q.02-.58.59-.67c11.1-1.7 20.32-3.77 26.39 7.91Zm-3.82 3.77c-2.12-7.53-11.33-9.57-17.13-5.17-1.61 1.21-2.42 3.4-4.02 4.97q-.36.35-.33.85c.19 3.07-2.22 7.66.05 10.25a1.41 1.38-66.5 0 1 .34.89q.01 2.61 2.25 4.52 5.18 4.39 11.23 2.2a1.79 1.69 8.7 0 0 .72-.5q.62-.74 1.54-.56a.97.97 0 0 0 .86-.27q7.27-7.34 4.49-17.18Z"/><ellipse fill="#9397e5" rx="10.07" ry="9.01" transform="rotate(-45 357.365 -196.746)"/><path fill="#9397e5" d="M150.89 191.31c5.8-4.4 15.01-2.36 17.13 5.17q2.78 9.84-4.49 17.18a.97.97 0 0 1-.86.27q-.92-.18-1.54.56a1.79 1.69 8.7 0 1-.72.5q-6.05 2.19-11.23-2.2-2.24-1.91-2.25-4.52a1.41 1.38-66.5 0 0-.34-.89c-2.27-2.59.14-7.18-.05-10.25q-.03-.5.33-.85c1.6-1.57 2.41-3.76 4.02-4.97Z"/><path fill="#162ec9" d="M295.49 208.5q-1.9-.19-2.76.94l-3.59.57q-.55.08-.32-.43 3.84-8.48 4.18-17.78a.42.42 0 0 1 .79-.18c2.49 4.8 5.44 8.73 6.66 14.19a.67.67 0 0 1-.39.76l-4.57 1.93Z"/><path fill="#9397e5" d="M171.84 192.71q1.54 1.83 1.13 5.6l-1.13-5.6Z"/><path fill="#162ec9" d="m138.3 204.41-.6 26.48q-.01.47.45.42 14.88-1.34 19.14-2.97 16.5-6.31 21.37-23.6l41.13.16q3.03 9.26 11.05 12.72c12.42 5.35 26.42-1.84 33.29-12.89l19.49.75q-8.67 18.54-23.95 26.91c-24.1 13.19-56.07 5.32-59.21-25.68a.23.22 50 0 0-.44-.04c-6.25 23.43-25.35 41.49-49.53 45q-17.6 2.56-35.11 5.25a.31.31 0 0 1-.36-.32l1.27-52.13 22.01-.06ZM373.57 204.59c-3.91 14.68-20.07 21.31-33.65 24.3q-.72.16-.86-.57c-1.09-5.42-3.46-12.65-3.46-18.19q0-.55.55-.61 6.9-.78 13.27-4.35 11.37-1.24 24.15-.58ZM328.42 207.41c-2.13 17.18-19.39 25.34-34.79 28.13q-.42.08-.51-.33l-3.74-17.2q-.33-1.52 1.2-1.75 4.82-.73 10.13-2.83.78-.31 1.09-.66.26-.29.62-.43 4.9-1.88 4.32-7.46l20.82-.08q.55-.01.62.54l.24 2.07Z"/><path fill="#9397e5" d="M295.49 208.5q-1.62 1.16-2.76.94.86-1.13 2.76-.94Z"/><path fill="#696fdc" d="M286.74 235.1q-8.18-1.69-15.62-.93a.37.37 0 0 1-.27-.66q.95-.73.93-1.93 6.62-5.75 11.67-12.91.19-.27.22.06.61 7.77 3.07 16.37ZM333.43 231.1q-4.01 1.38-9.92 1.44-2.71.03-2.35-1.56 6.23-4.39 9.81-10.96.15-.28.21.03l2.25 11.05Z"/><path fill="#3c50d2" d="m200.04 225.94 1.99 3.4a1.56 1.56 0 0 1-1.24 2.34l-3.63.26q-.57.04-.45-.52l.67-3.24q2.98-5.69 2.66-2.24Z"/><path fill="#f5f6fc" d="M478.66 400q-.11-.03-.22 0c-10.25-.52-19.28-.89-30.49-.5q-10.72.37-21.43-.17-7.3-.36-14.18-.07c-11.64.49-23.41.42-35.25.09q-1.72-.05-7.12-.89c-3.91-.6-7.68-.03-11.74-.63-3.23-.48-6.29.43-9.68-.17a.71.7 89.9 0 1-.58-.59c-.69-4.65-.79-10.49 4.44-11.97q.52-.15.9-.53l.26-.26q.27-.28.66-.29 2.1-.06 5.84.65c3.24.62 7.87-.65 10.58-.86q12.07-.93 24.18-.82c11.34.1 23.58.39 34.89-.53 3.61-.29 7.15 0 10.69-.18 10.94-.55 21.46 2.2 30.55.52 4.26-.79 8.44-.53 12.1.13 5.32.95 5 9.15 4.17 13.06-.93 4.4-5.06 3.61-8.57 4.01Zm-122.33-11.98 1.2-1.12a.75.75 0 0 0-.38-1.28c-6.23-1.15-9.3 3.53-6.93 9.12a1.3 1.3 0 0 0 2.36.08q1.19-2.38 3.5-3.99 1.27-.89.25-1.89-.48-.46 0-.92Zm57.92 2.11.8 4.55a.44.44 0 0 0 .8.17q1.43-2.12 1.37-4.74-.02-.53.35-.92l1.73-1.81a.69.69 0 0 0-.4-1.15q-3.77-.56-6.74 1.65a.89.89 0 0 0 .49 1.6l.92.05q.58.03.68.6Zm-52.29 1.36q-.89-.7-.52-3 .24-1.54-1.31-1.41-1.04.08-1.56.72-.72.88-.72.96l.23 5.57q.04.82.86.9 2.6.25 4.79-.95a1.48 1.4 41.7 0 0-.22-2.58q-.17-.07-.8-.04-.5.03-.75-.17Zm8.67 2.01q.22.33.1.77-.2.78.6.74l1.42-.09q.82-.04.79-.86l-.14-5.73a.65.64-80.7 0 0-.42-.59c-4.79-1.75-5.89 3.42-7.55 6.54a1.02 1.02 0 0 0 1.54 1.27l2.69-2.19a.66.65-36.4 0 1 .97.14Zm18.07 1.34 1.78-.09a.53.53 0 0 0 .51-.56l-.19-3.63a3.09 1.24 87.1 0 0-1.39-3.02l-.36.01a3.09 1.24 87.1 0 0-1.09 3.15l.19 3.64a.53.53 0 0 0 .55.5Zm76.02.16q5.56.26 5.96-5.25a1.76 1.76 0 0 0-1.09-1.75c-4.27-1.72-9.52 2.16-5.94 6.47a1.49 1.44-17.8 0 0 1.07.53Zm-82.24-4.47.3-.18q.62-.37.66.36l.2 3.46a1.12 1.12 0 0 0 2.2.22q.78-2.98.04-6.1a.71.71 0 0 0-.74-.54l-8.84.7q-.69.05-.7.75l-.04 4.22a1.36 1.36 0 0 0 2.67.35l.81-3.14a.36.36 0 0 1 .71.09v3.53a.56.56 0 0 0 .77.52q2.27-.95 1.66-3.55a.64.63 69.1 0 1 .3-.69Zm22.78 1.37q-1.4-.31-.84-1.74.58-1.48 2.5-1.23.31.04.49-.05.24-.12.38-.31.35-.48-.24-.6c-5.02-1.05-8.32 4.54-3.34 7a1.29 1.28 46.4 0 0 1.07.03q1.04-.44 1.89.32a1.24 1.24 0 0 0 2.07-.91l.02-3.91q0-.5-.51-.5h-2.25q-.75 0-.75.75v.76q0 .5-.49.39Zm28.81 1.81.49.82a.92.9 74.9 0 0 .76.45q1.59.05 1.88-1.64a1.36 1.33 26.6 0 0-.42-1.21q-2.06-1.86.23-3.43a.46.46 0 0 0-.27-.84q-1.14.03-1.87.9a.52.52 0 0 1-.62.14l-1.7-.79a1.44 1.43 79 0 0-1.58 2.35q1.43 1.33.14 2.72a.58.58 0 0 0-.08.68l.29.47a.53.52 53.6 0 0 .8.13l.97-.89q.58-.53.98.14Zm8.01-2.74.25 3.52a.54.54 0 0 0 .82.42c2.4-1.48.02-4.34 3.44-5.49a.67.67 0 0 0-.02-1.27q-3.92-1.16-7.05 1.28a.56.55-67.5 0 0 .41.99l1.29-.16a.77.76-5.3 0 1 .86.71Zm18.21-2.93c-8.98-2.6-8.64 10.81-1.26 5.67a.94.94 0 0 0-.54-1.71h-1.75a.87.86 22.7 0 1-.61-1.48c1.28-1.26 3.33.53 4.49-1.74a.52.52 0 0 0-.33-.74Zm15.86 2.56-.18 2.71a1.07 1.07 0 0 0 2.05.51q.63-1.4.46-3.04a.38.38 0 0 1 .26-.41l.5-.15a.61.61 0 0 1 .79.6l-.14 3.42q-.02.52.5.65 1.03.25 1.57-.89 1.47-3.09-.37-5.77-.28-.42-.79-.37l-7.63.83q-.69.07-.83.75-.55 2.66.55 5.06.28.61.77.16c1.31-1.19 1.21-4.11 1.83-4.47q.71-.4.66.41Zm-79.05.05q.22 1.5.38 2.99a.91.91 0 0 0 1.74.24q1.1-2.75.05-5.67a.62.62 0 0 0-.83-.36q-2.6 1.15-5.37.63-.58-.11-.54.47l.3 5.36a.59.59 0 0 0 .83.5q2.03-.92 1.73-3.32a1.09.79-62 0 1 1.71-.84Zm52.434 4.336a1.39 1.12 106.1 0 0 1.462-1.025 1.39 1.12 106.1 0 0-.69-1.647 1.39 1.12 106.1 0 0-1.462 1.025 1.39 1.12 106.1 0 0 .69 1.647Z"/><path fill="#fff" d="M356.33 388.94q1.02 1-.25 1.89-2.31 1.61-3.5 3.99a1.3 1.3 0 0 1-2.36-.08c-2.37-5.59.7-10.27 6.93-9.12a.75.75 0 0 1 .38 1.28l-1.2 1.12q-.48.46 0 .92ZM413.57 389.53l-.92-.05a.89.89 0 0 1-.49-1.6q2.97-2.21 6.74-1.65a.69.69 0 0 1 .4 1.15l-1.73 1.81q-.37.39-.35.92.06 2.62-1.37 4.74a.44.44 0 0 1-.8-.17l-.8-4.55q-.1-.57-.68-.6ZM362.71 391.66q.63-.03.8.04a1.48 1.4 41.7 0 1 .22 2.58q-2.19 1.2-4.79.95-.82-.08-.86-.9l-.23-5.57q0-.08.72-.96.52-.64 1.56-.72 1.55-.13 1.31 1.41-.37 2.3.52 3 .25.2.75.17ZM370.63 393.5a.66.65-36.4 0 0-.97-.14l-2.69 2.19a1.02 1.02 0 0 1-1.54-1.27c1.66-3.12 2.76-8.29 7.55-6.54a.65.64-80.7 0 1 .42.59l.14 5.73q.03.82-.79.86l-1.42.09q-.8.04-.6-.74.12-.44-.1-.77ZM388.7 394.84a.53.53 0 0 1-.55-.5l-.19-3.64a3.09 1.24 87.1 0 1 1.09-3.15l.36-.01a3.09 1.24 87.1 0 1 1.39 3.02l.19 3.63a.53.53 0 0 1-.51.56l-1.78.09ZM463.65 394.47c-3.58-4.31 1.67-8.19 5.94-6.47a1.76 1.76 0 0 1 1.09 1.75q-.4 5.51-5.96 5.25a1.49 1.44-17.8 0 1-1.07-.53Zm1.9-3.04 1.24.75a1.01 1.01 0 0 0 1.17-1.64q-1.08-.92-2.35-.34a.7.69 48 0 0-.06 1.23Z"/><path fill="#fff" d="M382.18 391.22q.61 2.6-1.66 3.55a.56.56 0 0 1-.77-.52v-3.53a.36.36 0 0 0-.71-.09l-.81 3.14a1.36 1.36 0 0 1-2.67-.35l.04-4.22q.01-.7.7-.75l8.84-.7a.71.71 0 0 1 .74.54q.74 3.12-.04 6.1a1.12 1.12 0 0 1-2.2-.22l-.2-3.46q-.04-.73-.66-.36l-.3.18a.64.63 69.1 0 0-.3.69ZM405.75 391.51v-.76q0-.75.75-.75h2.25q.51 0 .51.5l-.02 3.91a1.24 1.24 0 0 1-2.07.91q-.85-.76-1.89-.32a1.29 1.28 46.4 0 1-1.07-.03c-4.98-2.46-1.68-8.05 3.34-7q.59.12.24.6-.14.19-.38.31-.18.09-.49.05-1.92-.25-2.5 1.23-.56 1.43.84 1.74.49.11.49-.39ZM433.09 393.57l-.97.89a.53.52 53.6 0 1-.8-.13l-.29-.47a.58.58 0 0 1 .08-.68q1.29-1.39-.14-2.72a1.44 1.43 79 0 1 1.58-2.35l1.7.79a.52.52 0 0 0 .62-.14q.73-.87 1.87-.9a.46.46 0 0 1 .27.84q-2.29 1.57-.23 3.43a1.36 1.33 26.6 0 1 .42 1.21q-.29 1.69-1.88 1.64a.92.9 74.9 0 1-.76-.45l-.49-.82q-.4-.67-.98-.14ZM441.22 390.26l-1.29.16a.56.55-67.5 0 1-.41-.99q3.13-2.44 7.05-1.28a.67.67 0 0 1 .02 1.27c-3.42 1.15-1.04 4.01-3.44 5.49a.54.54 0 0 1-.82-.42l-.25-3.52a.77.76-5.3 0 0-.86-.71ZM459.03 393.71c-7.38 5.14-7.72-8.27 1.26-5.67a.52.52 0 0 1 .33.74c-1.16 2.27-3.21.48-4.49 1.74a.87.86 22.7 0 0 .61 1.48h1.75a.94.94 0 0 1 .54 1.71ZM475.49 390.19c-.62.36-.52 3.28-1.83 4.47q-.49.45-.77-.16-1.1-2.4-.55-5.06.14-.68.83-.75l7.63-.83q.51-.05.79.37 1.84 2.68.37 5.77-.54 1.14-1.57.89-.52-.13-.5-.65l.14-3.42a.61.61 0 0 0-.79-.6l-.5.15a.38.38 0 0 0-.26.41q.17 1.64-.46 3.04a1.07 1.07 0 0 1-2.05-.51l.18-2.71q.05-.81-.66-.41ZM397.1 390.65a1.09.79-62 0 0-1.71.84q.3 2.4-1.73 3.32a.59.59 0 0 1-.83-.5l-.3-5.36q-.04-.58.54-.47 2.77.52 5.37-.63a.62.62 0 0 1 .83.36q1.05 2.92-.05 5.67a.91.91 0 0 1-1.74-.24q-.16-1.49-.38-2.99Z"/><path fill="#f5f6fc" d="M465.55 391.43a.7.69 48 0 1 .06-1.23q1.27-.58 2.35.34a1.01 1.01 0 0 1-1.17 1.64l-1.24-.75Z"/><ellipse fill="#fff" rx="1.39" ry="1.12" transform="rotate(106.1 76.91 366.037)"/></svg>